ply
format ascii 1.0
comment VCGLIB generated
element vertex 146
property float x
property float y
property float z
element face 288
property list uchar int vertex_indices
end_header
1.5 1.5 0 
1.5 1.11177 0.05111 
1.11177 1.5 0.05111 
1.5 1.88823 0.05111 
1.88823 1.5 0.05111 
1.06982 1.02165 0.14496 
0.75 1.5 0.20096 
1.5 0.75 0.20096 
1.93018 1.02165 0.14496 
1.06982 1.97835 0.14496 
1.93018 1.97835 0.14496 
1.06585 0.60236 0.37939 
2.32175 2.02553 0.36046 
2.25 1.5 0.20096 
0.67825 0.97447 0.36046 
2.32175 0.97447 0.36046 
1.93415 0.60236 0.37939 
2.56066 1.5 0.43934 
1.5 2.25 0.20096 
1.06585 2.39764 0.37939 
1.5 2.56066 0.43934 
1.93415 2.39764 0.37939 
1.5 0.43934 0.43934 
0.43934 1.5 0.43934 
0.67825 2.02553 0.36046 
0.36046 2.02553 0.67825 
0.67842 0.55132 0.67842 
2.32158 2.44868 0.67842 
2.32158 0.55132 0.67842 
1.08111 0.29386 0.71275 
1.91889 0.29386 0.71275 
0.67842 2.44868 0.67842 
1.08111 2.70614 0.71275 
2.79904 1.5 0.75 
0.20096 1.5 0.75 
2.63954 2.02553 0.67825 
2.63954 0.97447 0.67825 
0.36046 0.97447 0.67825 
0.37939 0.60236 1.06585 
2.85504 1.97835 1.06982 
0.71275 0.29386 1.08111 
0.37939 2.39764 1.06585 
2.6206 0.60236 1.06585 
2.28725 0.29386 1.08111 
1.5 2.79904 0.75 
1.09911 0.11127 1.09911 
1.91889 2.70614 0.71275 
1.09911 2.88873 1.09911 
2.85504 1.02165 1.06982 
1.5 0.20096 0.75 
1.90089 0.11127 1.09911 
2.94889 1.5 1.11177 
0.14496 1.97835 1.06982 
0.20096 0.75 1.5 
0.14496 1.02165 1.06982 
0.43934 0.43934 1.5 
2.79904 2.25 1.5 
0.71275 2.70614 1.08111 
2.28725 2.70614 1.08111 
2.6206 2.39764 1.06585 
2.79904 0.75 1.5 
0.05111 1.11177 1.5 
0.05111 1.5 1.11177 
2.94889 1.88823 1.5 
0.75 0.20096 1.5 
2.25 2.79904 1.5 
2.56066 2.56066 1.5 
0.43934 2.56066 1.5 
1.90089 2.88873 1.09911 
2.56066 0.43934 1.5 
2.25 0.20096 1.5 
1.88823 0.05111 1.5 
1.5 0.05111 1.11177 
1.5 2.94889 1.11177 
1.88823 2.94889 1.5 
1.5 0 1.5 
3 1.5 1.5 
1.11177 2.94889 1.5 
2.94889 1.11177 1.5 
0 1.5 1.5 
2.94889 1.5 1.88823 
2.85504 1.97835 1.93018 
1.5 0.05111 1.88823 
2.85504 1.02165 1.93018 
1.5 3 1.5 
2.6206 0.60236 1.93415 
2.28725 2.70614 1.91889 
2.6206 2.39764 1.93415 
1.11177 0.05111 1.5 
0.75 2.79904 1.5 
0.20096 2.25 1.5 
0.37939 2.39764 1.93415 
1.90089 2.88873 1.90089 
0.14496 1.02165 1.93018 
0.05111 1.88823 1.5 
0.05111 1.5 1.88823 
1.5 2.94889 1.88823 
1.5 0.20096 2.25 
1.5 2.79904 2.25 
1.09911 0.11127 1.90089 
1.91889 2.70614 2.28725 
1.90089 0.11127 1.90089 
1.09911 2.88873 1.90089 
2.32158 2.44868 2.32158 
0.67842 0.55132 2.32158 
0.37939 0.60236 1.93415 
0.71275 0.29386 1.91889 
2.32158 0.55132 2.32158 
1.91889 0.29386 2.28725 
2.28725 0.29386 1.91889 
0.71275 2.70614 1.91889 
0.14496 1.97835 1.93018 
0.20096 1.5 2.25 
2.63954 0.97447 2.32175 
2.79904 1.5 2.25 
0.36046 0.97447 2.32175 
0.36046 2.02553 2.32175 
0.67842 2.44868 2.32158 
2.63954 2.02553 2.32175 
0.43934 1.5 2.56066 
1.08111 0.29386 2.28725 
1.5 0.43934 2.56066 
1.08111 2.70614 2.28725 
1.93415 0.60236 2.6206 
1.93415 2.39764 2.6206 
1.06585 0.60236 2.6206 
1.5 2.56066 2.56066 
0.67825 2.02553 2.63954 
0.67825 0.97447 2.63954 
2.32175 2.02553 2.63954 
2.56066 1.5 2.56066 
0.75 1.5 2.79904 
1.5 0.75 2.79904 
1.06585 2.39764 2.6206 
1.5 2.25 2.79904 
1.93018 1.97835 2.85504 
2.32175 0.97447 2.63954 
1.06982 1.97835 2.85504 
1.06982 1.02165 2.85504 
1.93018 1.02165 2.85504 
2.25 1.5 2.79904 
1.5 1.11177 2.94889 
1.11177 1.5 2.94889 
1.5 1.88823 2.94889 
1.88823 1.5 2.94889 
1.5 1.5 3 
3 0 1 2 
3 0 3 4 
3 2 3 0 
3 4 1 0 
3 2 5 6 
3 7 5 1 
3 3 9 18 
3 8 1 4 
3 9 3 2 
3 6 9 2 
3 13 8 4 
3 4 3 10 
3 1 8 7 
3 18 10 3 
3 4 10 13 
3 2 1 5 
3 11 14 5 
3 5 7 11 
3 12 13 10 
3 21 12 10 
3 14 6 5 
3 10 18 21 
3 19 18 9 
3 8 13 15 
3 16 7 8 
3 9 24 19 
3 8 15 16 
3 9 6 24 
3 17 15 13 
3 18 19 20 
3 20 21 18 
3 13 12 17 
3 7 16 22 
3 22 11 7 
3 6 14 23 
3 23 24 6 
3 24 23 25 
3 26 37 14 
3 35 17 12 
3 27 35 12 
3 37 23 14 
3 28 16 15 
3 15 36 28 
3 24 25 31 
3 15 17 36 
3 12 21 27 
3 31 19 24 
3 14 11 26 
3 11 22 29 
3 29 26 11 
3 46 27 21 
3 21 20 46 
3 30 22 16 
3 16 28 30 
3 32 20 19 
3 19 31 32 
3 34 25 23 
3 44 46 20 
3 22 30 49 
3 20 32 44 
3 33 36 17 
3 23 37 34 
3 17 35 33 
3 49 29 22 
3 42 28 36 
3 41 31 25 
3 48 42 36 
3 36 33 48 
3 52 41 25 
3 25 34 52 
3 35 59 39 
3 35 27 59 
3 54 34 37 
3 37 38 54 
3 39 33 35 
3 37 26 38 
3 58 59 27 
3 26 29 40 
3 40 38 26 
3 27 46 58 
3 57 32 31 
3 31 41 57 
3 43 30 28 
3 28 42 43 
3 50 49 30 
3 46 44 68 
3 30 43 50 
3 29 49 45 
3 68 58 46 
3 47 44 32 
3 32 57 47 
3 45 40 29 
3 51 48 33 
3 49 50 72 
3 73 68 44 
3 33 39 51 
3 44 47 73 
3 72 45 49 
3 62 52 34 
3 34 54 62 
3 41 52 90 
3 53 54 38 
3 42 48 60 
3 38 40 55 
3 38 55 53 
3 59 66 56 
3 67 57 41 
3 59 58 66 
3 56 39 59 
3 69 43 42 
3 60 69 42 
3 90 67 41 
3 54 53 61 
3 94 90 52 
3 52 62 94 
3 48 51 78 
3 78 60 48 
3 61 62 54 
3 39 56 63 
3 63 51 39 
3 40 64 55 
3 70 50 43 
3 89 47 57 
3 58 65 66 
3 67 89 57 
3 40 45 64 
3 58 68 65 
3 69 70 43 
3 71 72 50 
3 77 73 47 
3 45 88 64 
3 45 72 88 
3 68 73 74 
3 68 74 65 
3 89 77 47 
3 70 71 50 
3 72 75 88 
3 73 84 74 
3 51 63 76 
3 77 84 73 
3 62 61 79 
3 76 78 51 
3 71 75 72 
3 79 94 62 
3 81 63 56 
3 87 81 56 
3 99 64 88 
3 80 76 63 
3 81 80 63 
3 106 55 64 
3 78 80 83 
3 78 76 80 
3 64 99 106 
3 82 88 75 
3 55 106 105 
3 60 83 85 
3 60 78 83 
3 84 77 96 
3 77 89 102 
3 85 109 69 
3 87 56 66 
3 66 86 87 
3 102 96 77 
3 88 82 99 
3 69 60 85 
3 89 67 110 
3 110 102 89 
3 86 66 65 
3 65 92 86 
3 90 94 111 
3 90 111 91 
3 109 101 70 
3 92 65 74 
3 74 96 92 
3 105 53 55 
3 96 74 84 
3 70 69 109 
3 105 93 53 
3 101 82 71 
3 91 110 67 
3 94 79 95 
3 71 70 101 
3 75 71 82 
3 95 79 61 
3 93 95 61 
3 67 90 91 
3 93 61 53 
3 94 95 111 
3 96 102 98 
3 80 81 114 
3 112 111 95 
3 82 101 97 
3 98 92 96 
3 95 93 112 
3 114 83 80 
3 97 99 82 
3 99 97 120 
3 120 106 99 
3 92 98 100 
3 100 86 92 
3 108 97 101 
3 101 109 108 
3 102 110 122 
3 122 98 102 
3 86 100 103 
3 104 105 106 
3 106 120 104 
3 103 87 86 
3 117 122 110 
3 107 108 109 
3 109 85 107 
3 110 91 117 
3 111 112 116 
3 83 114 113 
3 116 91 111 
3 113 85 83 
3 118 114 81 
3 115 112 93 
3 81 87 118 
3 93 105 115 
3 105 104 115 
3 113 107 85 
3 116 117 91 
3 87 103 118 
3 130 113 114 
3 126 100 98 
3 112 115 119 
3 114 118 130 
3 121 120 97 
3 98 122 126 
3 119 116 112 
3 97 108 121 
3 122 117 133 
3 125 104 120 
3 123 121 108 
3 100 126 124 
3 120 121 125 
3 133 126 122 
3 124 103 100 
3 108 107 123 
3 127 133 117 
3 104 125 128 
3 129 118 103 
3 103 124 129 
3 136 123 107 
3 107 113 136 
3 128 115 104 
3 117 116 127 
3 129 130 118 
3 128 119 115 
3 113 130 136 
3 116 119 127 
3 119 128 131 
3 131 127 119 
3 126 133 134 
3 132 125 121 
3 140 136 130 
3 130 129 140 
3 134 124 126 
3 121 123 132 
3 133 127 137 
3 135 129 124 
3 124 134 135 
3 138 128 125 
3 123 136 139 
3 137 134 133 
3 139 132 123 
3 125 132 138 
3 135 140 129 
3 136 140 139 
3 127 131 137 
3 138 131 128 
3 140 135 144 
3 144 139 140 
3 134 137 143 
3 132 139 141 
3 131 138 142 
3 143 135 134 
3 142 137 131 
3 141 138 132 
3 143 144 135 
3 139 144 141 
3 137 142 143 
3 141 142 138 
3 143 142 145 
3 141 144 145 
3 145 142 141 
3 145 144 143 
