ply
format ascii 1.0
comment VCGLIB generated
element vertex 163
property float x
property float y
property float z
element face 160
property list uchar int vertex_indices
end_header
-0.492404 0.086824 0 
-0.246202 0.043412 1 
-0.406899 0.234923 0 
0 0.5 0 
0 0.25 1 
0.160697 0.441511 0 
-0.433013 -0.25 0 
-0.216506 -0.125 1 
-0.462708 -0.081588 0 
-0.17101 -0.469846 0 
-0.085505 -0.234923 1 
-0.302011 -0.359923 0 
0.17101 -0.469846 0 
0.085505 -0.234923 1 
-0 -0.469846 0 
0.433013 -0.25 0 
0.216506 -0.125 1 
0.302011 -0.359923 0 
0.492404 0.086824 0 
0.246202 0.043412 1 
0.462708 -0.081588 0 
-0.321394 0.383022 0 
-0.160697 0.191511 1 
-0.160697 0.441511 0 
0.321394 0.383022 0 
0.160697 0.191511 1 
0.406899 0.234923 0 
-0.160697 0.441511 0 
0 0.5 0 
0 0.5 0 
-0.160697 0.441511 0 
0 0.5 0 
-0.321394 0.383022 0 
-0.160697 0.441511 0 
-0.462708 -0.081588 0 
-0.492404 0.086824 0 
-0.406899 0.234923 0 
0.160697 0.441511 0 
0.321394 0.383022 0 
0.406899 0.234923 0 
-0.433013 -0.25 0 
-0.17101 -0.469846 0 
-0.302011 -0.359923 0 
0.17101 -0.469846 0 
-0 -0.469846 0 
0.433013 -0.25 0 
0.302011 -0.359923 0 
0.17101 -0.469846 0 
0.492404 0.086824 0 
0.462708 -0.081588 0 
0.433013 -0.25 0 
-0.406899 0.234923 0 
-0.321394 0.383022 0 
-0.321394 0.383022 0 
-0.406899 0.234923 0 
-0.462708 -0.081588 0 
-0.492404 0.086824 0 
-0.492404 0.086824 0 
-0.462708 -0.081588 0 
-0.302011 -0.359923 0 
-0.433013 -0.25 0 
-0.433013 -0.25 0 
-0.302011 -0.359923 0 
-0 -0.469846 0 
-0.17101 -0.469846 0 
-0.17101 -0.469846 0 
-0 -0.469846 0 
0.302011 -0.359923 0 
0.17101 -0.469846 0 
0.17101 -0.469846 0 
0.302011 -0.359923 0 
0.462708 -0.081588 0 
0.433013 -0.25 0 
0.433013 -0.25 0 
0.462708 -0.081588 0 
0.406899 0.234923 0 
0.492404 0.086824 0 
0.492404 0.086824 0 
0.406899 0.234923 0 
0.160697 0.441511 0 
0.321394 0.383022 0 
0.321394 0.383022 0 
0.160697 0.441511 0 
0 0.5 0 
0.160697 0.441511 0 
0.321394 0.383022 0 
0.406899 0.234923 0 
0.492404 0.086824 0 
0.462708 -0.081588 0 
0.433013 -0.25 0 
0.302011 -0.359923 0 
0.17101 -0.469846 0 
-0 -0.469846 0 
-0.17101 -0.469846 0 
-0.302011 -0.359923 0 
-0.433013 -0.25 0 
-0.462708 -0.081588 0 
-0.492404 0.086824 0 
-0.406899 0.234923 0 
-0.321394 0.383022 0 
-0.160697 0.441511 0 
0.246202 0.043412 1 
0.492404 0.086824 0 
0.203449 0.117462 1 
0.080348 0.095756 1.5 
-0.160697 0.441511 0 
0 0.25 1 
0 0.5 0 
-0.080348 0.220756 1 
0 0.25 1 
-0.080348 0.095756 1.5 
0.216506 -0.125 1 
0.433013 -0.25 0 
0.231354 -0.040794 1 
0.123101 0.021706 1.5 
0.085505 -0.234923 1 
0.17101 -0.469846 0 
0.151006 -0.179962 1 
0.108253 -0.0625 1.5 
-0.085505 -0.234923 1 
-0.17101 -0.469846 0 
-0 -0.234923 1 
0.042753 -0.117462 1.5 
-0.216506 -0.125 1 
-0.433013 -0.25 0 
-0.151006 -0.179962 1 
-0.042753 -0.117462 1.5 
-0.246202 0.043412 1 
-0.492404 0.086824 0 
-0.231354 -0.040794 1 
-0.108253 -0.0625 1.5 
0.160697 0.441511 0 
0.160697 0.191511 1 
0.321394 0.383022 0 
0 0.25 1 
0.080348 0.220756 1 
0 0.125 1.5 
0.080348 0.220756 1 
-0.160697 0.191511 1 
-0.321394 0.383022 0 
-0.203449 0.117462 1 
-0.123101 0.021706 1.5 
-0.080348 0.095756 1.5 
0 0 2 
0.080348 0.095756 1.5 
0 0.125 1.5 
0 0 2 
-0.123101 0.021706 1.5 
0 0 2 
-0.108253 -0.0625 1.5 
0 0 2 
-0.042753 -0.117462 1.5 
0 0 2 
0.042753 -0.117462 1.5 
0 0 2 
0.108253 -0.0625 1.5 
0 0 2 
-0.080348 0.220756 1 
0 0.125 1.5 
0 0.125 1.5 
0 0 2 
0.123101 0.021706 1.5 
0 0 2 
3 0 1 2 
3 3 4 5 
3 6 7 8 
3 9 10 11 
3 12 13 14 
3 15 16 17 
3 18 19 20 
3 21 22 23 
3 24 25 26 
3 27 28 29 
3 27 29 30 
3 31 32 33 
3 34 35 36 
3 31 36 32 
3 37 38 39 
3 31 37 36 
3 40 34 36 
3 41 42 40 
3 43 44 41 
3 45 46 47 
3 48 49 50 
3 37 39 48 
3 37 40 36 
3 43 41 40 
3 48 50 43 
3 37 48 40 
3 48 43 40 
3 51 52 53 
3 51 53 54 
3 55 56 57 
3 55 57 58 
3 59 60 61 
3 59 61 62 
3 63 64 65 
3 63 65 66 
3 67 68 69 
3 67 69 70 
3 71 72 73 
3 71 73 74 
3 75 76 77 
3 75 77 78 
3 79 80 81 
3 79 81 82 
3 28 79 82 
3 28 82 29 
3 83 84 79 
3 83 79 28 
3 84 85 80 
3 84 80 79 
3 80 75 78 
3 80 78 81 
3 85 86 75 
3 85 75 80 
3 86 87 76 
3 86 76 75 
3 76 71 74 
3 76 74 77 
3 87 88 71 
3 87 71 76 
3 88 89 72 
3 88 72 71 
3 72 67 70 
3 72 70 73 
3 89 90 67 
3 89 67 72 
3 90 91 68 
3 90 68 67 
3 68 63 66 
3 68 66 69 
3 91 92 63 
3 91 63 68 
3 92 93 64 
3 92 64 63 
3 64 59 62 
3 64 62 65 
3 93 94 59 
3 93 59 64 
3 94 95 60 
3 94 60 59 
3 60 55 58 
3 60 58 61 
3 95 96 55 
3 95 55 60 
3 96 97 56 
3 96 56 55 
3 56 51 54 
3 56 54 57 
3 97 98 51 
3 97 51 56 
3 98 99 52 
3 98 52 51 
3 52 27 30 
3 52 30 53 
3 99 100 27 
3 99 27 52 
3 100 83 28 
3 100 28 27 
3 26 101 102 
3 26 25 103 
3 26 103 101 
3 25 104 103 
3 105 106 107 
3 23 22 108 
3 23 108 109 
3 22 110 108 
3 20 111 112 
3 20 19 113 
3 20 113 111 
3 19 114 113 
3 17 115 116 
3 17 16 117 
3 17 117 115 
3 16 118 117 
3 14 119 120 
3 14 13 121 
3 14 121 119 
3 13 122 121 
3 11 123 124 
3 11 10 125 
3 11 125 123 
3 10 126 125 
3 8 127 128 
3 8 7 129 
3 8 129 127 
3 7 130 129 
3 131 132 133 
3 131 134 135 
3 131 135 132 
3 4 136 137 
3 2 138 139 
3 2 1 140 
3 2 140 138 
3 1 141 140 
3 140 142 138 
3 140 141 142 
3 141 143 142 
3 135 144 132 
3 135 145 144 
3 145 146 144 
3 129 147 127 
3 129 130 147 
3 130 148 147 
3 125 149 123 
3 125 126 149 
3 126 150 149 
3 121 151 119 
3 121 122 151 
3 122 152 151 
3 117 153 115 
3 117 118 153 
3 118 154 153 
3 113 155 111 
3 113 114 155 
3 114 156 155 
3 157 158 106 
3 108 110 159 
3 110 160 159 
3 103 161 101 
3 103 104 161 
3 104 162 161 
